<svg xmlns="http://www.w3.org/2000/svg" version="1.1" viewBox="0 0 1024 1024" width="1024.00" height="1024.00">
<g stroke-width="2.00" fill="none" stroke-linecap="butt">
<path stroke="#2b2a2b" d="&#10;  M 528.56 0.00&#10;  Q 514.68 14.62 503.99 22.58&#10;  C 489.73 33.20 477.06 42.29 464.46 52.16&#10;  Q 451.39 62.39 417.44 88.27&#10;  C 410.09 93.88 403.20 99.55 392.71 107.86&#10;  C 385.46 113.60 380.37 118.38 374.90 124.62&#10;  A 0.05 0.05 0.0 0 0 374.96 124.69&#10;  C 399.74 114.40 426.26 105.87 451.82 99.96&#10;  Q 481.79 93.04 512.14 91.73&#10;  A 0.60 0.59 81.6 0 1 512.74 92.18&#10;  Q 515.98 105.41 519.53 123.59&#10;  C 520.98 131.01 523.16 139.42 525.40 144.81&#10;  Q 527.39 149.61 532.56 161.31&#10;  C 539.58 177.22 536.62 194.57 528.86 209.55&#10;  Q 516.27 233.84 509.06 247.66&#10;  C 504.30 256.79 498.53 263.04 490.83 271.49&#10;  C 487.21 275.46 477.83 287.17 470.34 296.13&#10;  A 0.25 0.24 24.7 0 0 470.49 296.53&#10;  L 477.06 297.54"/>
<path stroke="#4d4f6c" d="&#10;  M 331.75 491.00&#10;  Q 333.05 487.77 332.31 486.52&#10;  Q 302.11 435.69 297.65 428.36&#10;  Q 282.04 402.75 267.98 378.70&#10;  C 259.79 364.68 250.90 350.51 242.84 338.66&#10;  Q 231.97 322.70 216.75 310.25&#10;  Q 213.41 307.51 209.99 306.75"/>
<path stroke="#868485" stroke-opacity="0.910" d="&#10;  M 209.99 306.75&#10;  Q 202.54 301.25 192.98 299.54"/>
<path stroke="#868485" stroke-opacity="0.910" d="&#10;  M 167.46 300.05&#10;  Q 161.03 300.92 155.34 304.35&#10;  Q 137.65 314.99 131.73 334.41&#10;  C 129.80 340.72 129.62 348.68 129.64 355.25&#10;  C 129.87 464.21 129.49 580.56 129.43 672.23&#10;  Q 129.43 683.72 130.88 689.65&#10;  Q 135.43 708.21 152.34 719.17"/>
<path stroke="#242223" d="&#10;  M 152.34 719.17&#10;  Q 151.82 719.70 151.31 719.68"/>
<path stroke="#2b2a2b" d="&#10;  M 151.31 719.68&#10;  Q 144.55 715.60 141.99 712.75&#10;  Q 136.38 706.53 134.71 704.56&#10;  C 128.42 697.16 125.93 688.08 125.06 678.38&#10;  A 0.55 0.55 0.0 0 0 124.49 677.88&#10;  Q 88.36 678.94 53.95 683.88&#10;  Q 42.60 685.51 32.04 687.96&#10;  Q 16.17 691.65 10.54 693.72&#10;  Q 3.28 696.39 0.00 697.13"/>
<path stroke="#3a393a" d="&#10;  M 590.08 0.00&#10;  Q 577.84 10.29 569.53 25.86&#10;  Q 564.79 34.75 563.11 40.78&#10;  Q 558.16 58.62 555.35 67.70&#10;  C 552.33 77.43 551.77 84.07 556.87 92.20&#10;  A 1.16 1.16 0.0 0 0 557.70 92.73&#10;  C 588.52 96.35 619.29 108.61 645.88 124.78"/>
<path stroke="#414041" d="&#10;  M 645.88 124.78&#10;  C 662.03 136.36 676.07 148.48 687.99 164.29&#10;  Q 702.92 184.08 713.76 206.54&#10;  C 726.54 233.01 733.42 264.45 733.95 293.92&#10;  Q 734.00 296.63 736.03 299.19"/>
<path stroke="#2b2a2b" d="&#10;  M 638.23 299.09&#10;  L 633.61 299.23"/>
<path stroke="#3a393a" d="&#10;  M 727.52 390.39&#10;  C 719.24 420.79 708.10 450.68 691.52 477.52&#10;  Q 682.11 492.75 672.00 506.62&#10;  Q 663.05 518.88 649.22 533.22&#10;  Q 633.84 549.18 616.64 564.07"/>
<path stroke="#2b2a2b" d="&#10;  M 616.64 564.07&#10;  Q 611.55 567.56 605.70 571.95&#10;  Q 599.84 576.35 586.25 584.48&#10;  Q 575.19 591.11 551.10 604.08&#10;  Q 546.49 606.56 539.21 609.91&#10;  Q 535.88 611.44 531.92 611.54"/>
<path stroke="#624b67" d="&#10;  M 531.92 611.54&#10;  L 531.65 449.21"/>
<path stroke="#545673" d="&#10;  M 531.65 449.21&#10;  Q 531.53 404.73 531.33 360.25&#10;  Q 531.28 348.31 526.37 336.63&#10;  Q 522.55 327.53 515.85 321.52"/>
<path stroke="#494849" d="&#10;  M 653.08 0.00&#10;  Q 645.43 12.90 643.46 27.77&#10;  C 639.27 59.24 640.63 91.92 645.88 124.78"/>
<path stroke="#555455" d="&#10;  M 776.00 0.00&#10;  L 773.48 0.42&#10;  A 0.90 0.89 9.8 0 0 772.84 0.87&#10;  Q 767.05 11.18 765.71 21.65&#10;  Q 763.59 38.18 765.87 57.95&#10;  C 767.15 68.98 769.15 79.36 770.18 90.65&#10;  Q 771.81 108.46 772.41 127.33&#10;  C 773.21 152.45 773.01 165.28 776.54 184.81&#10;  C 780.97 209.29 785.06 232.05 797.16 251.37&#10;  Q 807.18 267.37 822.06 281.29&#10;  C 825.97 284.96 831.34 288.95 835.78 292.70&#10;  Q 839.22 295.60 840.25 299.25"/>
<path stroke="#3f3e3f" d="&#10;  M 815.01 2.71&#10;  Q 815.26 2.63 815.72 2.73"/>
<path stroke="#3f3e3f" d="&#10;  M 818.46 3.09&#10;  Q 818.76 3.33 819.21 3.23"/>
<path stroke="#3f3e3f" d="&#10;  M 820.69 3.48&#10;  Q 822.17 4.25 824.22 3.94"/>
<path stroke="#3f3e3f" d="&#10;  M 825.25 4.10&#10;  Q 825.23 4.11 825.21 4.13"/>
<path stroke="#5e5d5e" d="&#10;  M 825.21 4.13&#10;  L 822.27 4.62&#10;  A 0.66 0.66 0.0 0 0 821.73 5.16&#10;  C 818.58 23.96 821.60 43.81 827.09 61.25&#10;  C 832.17 77.40 835.83 86.19 836.71 98.22&#10;  C 837.89 114.40 838.91 124.49 839.90 139.56&#10;  Q 840.48 148.45 841.39 155.30&#10;  Q 842.10 160.65 846.47 179.89&#10;  Q 848.23 187.62 849.91 191.55&#10;  Q 855.76 205.24 870.22 210.55&#10;  C 880.18 214.20 890.42 216.80 901.10 215.61&#10;  Q 917.42 213.78 919.27 213.62&#10;  C 930.26 212.68 939.14 213.65 950.65 215.14&#10;  C 965.63 217.07 979.03 216.16 998.04 214.82&#10;  Q 1007.15 214.18 1022.26 215.75"/>
<path stroke="#555455" d="&#10;  M 1024.00 295.88&#10;  C 1010.50 293.34 996.16 300.67 982.35 301.99&#10;  Q 978.30 302.37 972.16 303.10&#10;  Q 968.64 303.52 955.37 307.15&#10;  Q 950.18 308.57 948.04 308.93&#10;  Q 934.69 311.13 920.21 314.73&#10;  C 910.38 317.18 900.42 322.12 890.97 326.26"/>
<path stroke="#434243" d="&#10;  M 825.96 4.20&#10;  L 825.21 4.13"/>
<path stroke="#434243" d="&#10;  M 826.70 4.33&#10;  Q 827.66 5.04 828.96 4.71"/>
<path stroke="#4a494a" d="&#10;  M 831.18 5.21&#10;  Q 832.44 6.24 834.76 5.92"/>
<path stroke="#494849" d="&#10;  M 1024.00 365.69&#10;  Q 1011.96 366.79 999.88 367.60&#10;  Q 952.66 370.79 905.37 372.85&#10;  Q 897.26 373.20 890.98 372.56"/>
<path stroke="#637f5e" d="&#10;  M 890.98 372.56&#10;  Q 892.52 368.15 891.75 364.00"/>
<path stroke="#9e9d9d" stroke-opacity="0.910" d="&#10;  M 891.75 364.00&#10;  Q 893.53 359.73 893.19 356.35"/>
<path stroke="#b3b5d5" stroke-opacity="0.910" d="&#10;  M 209.99 306.75&#10;  Q 217.54 312.59 221.86 320.20"/>
<path stroke="#a8a7a8" stroke-opacity="0.910" d="&#10;  M 201.33 306.15&#10;  Q 201.34 305.36 200.83 304.79&#10;  A 0.34 0.34 0.0 0 1 200.83 304.33&#10;  Q 200.96 304.18 201.40 304.10&#10;  Q 201.68 304.05 202.00 304.62&#10;  Q 202.30 305.13 202.61 305.19&#10;  A 0.21 0.21 0.0 0 0 202.76 304.80&#10;  L 200.58 303.54&#10;  A 0.16 0.14 29.1 0 0 200.37 303.59&#10;  L 200.19 303.90&#10;  A 0.30 0.30 0.0 0 1 199.71 303.96&#10;  Q 198.68 302.90 197.23 302.62"/>
<path stroke="#868485" stroke-opacity="0.910" d="&#10;  M 166.35 302.71&#10;  L 166.31 303.75"/>
<path stroke="#b3d2ae" stroke-opacity="0.910" d="&#10;  M 166.19 303.96&#10;  Q 165.88 304.39 166.07 305.04"/>
<path stroke="#868485" stroke-opacity="0.910" d="&#10;  M 206.69 716.80&#10;  Q 196.36 723.87 183.51 725.61&#10;  Q 166.52 727.93 152.34 719.17"/>
<path stroke="#868485" stroke-opacity="0.910" d="&#10;  M 849.96 310.47&#10;  Q 849.44 310.33 848.73 310.40"/>
<path stroke="#b3d2ae" stroke-opacity="0.910" d="&#10;  M 891.75 364.00&#10;  L 889.45 369.04"/>
<path stroke="#a8a7a8" stroke-opacity="0.910" d="&#10;  M 889.45 369.04&#10;  Q 889.16 369.32 889.32 369.36"/>
<path stroke="#b3d2ae" stroke-opacity="0.910" d="&#10;  M 889.32 369.36&#10;  L 879.40 381.62"/>
<path stroke="#a8a7a8" stroke-opacity="0.910" d="&#10;  M 879.40 381.62&#10;  Q 877.02 384.35 874.85 387.34&#10;  Q 865.20 400.61 856.39 414.91"/>
<path stroke="#b3d2ae" stroke-opacity="0.910" d="&#10;  M 856.39 414.91&#10;  Q 837.72 441.66 833.10 449.35&#10;  Q 828.21 457.49 823.96 462.12"/>
<path stroke="#8470a8" d="&#10;  M 531.65 449.21&#10;  L 531.41 458.37&#10;  A 0.30 0.30 0.0 0 1 530.94 458.60&#10;  L 521.49 452.02"/>
<path stroke="#5c7858" d="&#10;  M 890.98 372.56&#10;  Q 886.90 391.47 876.13 407.24"/>
<path stroke="#547050" d="&#10;  M 876.13 407.24&#10;  L 848.81 447.95"/>
<path stroke="#5c7858" d="&#10;  M 848.81 447.95&#10;  L 815.24 499.08"/>
<path stroke="#4d6948" d="&#10;  M 815.24 499.08&#10;  L 799.34 523.12"/>
<path stroke="#92b15e" d="&#10;  M 799.34 523.12&#10;  Q 790.79 524.05 782.35 526.53"/>
<path stroke="#6c8868" d="&#10;  M 856.39 414.91&#10;  Q 863.83 407.81 869.55 399.09&#10;  Q 875.70 389.71 876.46 388.78&#10;  C 879.69 384.80 883.68 380.77 886.96 376.27&#10;  A 0.23 0.22 33.7 0 0 886.89 375.94&#10;  L 886.60 375.77&#10;  A 0.08 0.07 -48.6 0 0 886.52 375.78&#10;  L 879.40 381.62"/>
<path stroke="#6c8868" d="&#10;  M 889.32 369.36&#10;  Q 889.32 369.85 889.45 369.04"/>
<path stroke="#333233" d="&#10;  M 1024.00 427.13&#10;  Q 984.24 442.28 959.57 450.82&#10;  Q 927.83 461.81 895.97 472.78&#10;  C 877.01 479.31 852.75 487.05 831.28 494.56&#10;  Q 825.97 496.42 815.24 499.08"/>
<path stroke="#3a393a" d="&#10;  M 848.81 447.95&#10;  Q 851.48 446.22 852.98 443.95&#10;  Q 863.54 427.99 871.08 417.57&#10;  Q 874.76 412.47 876.13 407.24"/>
<path stroke="#333233" d="&#10;  M 763.93 390.47&#10;  Q 764.21 390.75 764.98 390.63"/>
<path stroke="#333233" d="&#10;  M 761.77 398.35&#10;  Q 752.48 409.05 744.80 421.03&#10;  C 741.13 426.76 736.69 432.69 733.33 437.88&#10;  Q 726.45 448.48 724.32 451.57&#10;  Q 693.51 496.20 667.44 535.20&#10;  Q 659.92 546.45 654.12 554.61&#10;  A 3.80 3.76 -78.5 0 1 651.87 556.12&#10;  L 616.64 564.07"/>
<path stroke="#696a39" d="&#10;  M 725.85 634.47&#10;  L 799.34 523.12"/>
<path stroke="#2b2a2b" d="&#10;  M 427.76 1024.00&#10;  Q 424.74 1022.71 421.78 1021.38&#10;  C 414.90 1018.29 411.48 1012.38 410.06 1005.34&#10;  C 407.99 995.11 405.65 984.36 401.17 975.06&#10;  C 399.00 970.54 394.65 963.84 392.43 958.53&#10;  C 389.24 950.89 386.71 945.32 379.85 939.97&#10;  C 367.16 930.07 353.01 923.18 351.03 905.03&#10;  Q 350.63 901.42 349.99 889.28&#10;  C 349.37 877.73 344.59 870.47 337.12 861.91&#10;  C 333.73 858.02 330.65 852.83 327.03 848.23&#10;  C 324.55 845.07 325.42 840.22 325.04 836.96&#10;  Q 324.56 832.90 321.44 826.94&#10;  Q 319.68 823.59 311.94 808.40&#10;  C 307.23 799.17 300.59 790.73 297.13 780.54&#10;  Q 291.95 765.27 285.36 748.49&#10;  Q 285.17 748.00 284.51 745.97&#10;  C 281.29 736.04 278.60 725.78 275.85 718.61&#10;  C 270.60 704.91 264.48 689.65 256.22 675.56&#10;  A 0.89 0.86 -14.7 0 0 255.46 675.13&#10;  L 237.82 675.13&#10;  A 1.70 1.69 4.1 0 0 236.14 676.58&#10;  Q 233.73 692.70 223.30 704.78&#10;  C 218.47 710.38 215.58 716.69 208.98 720.71&#10;  C 197.16 727.92 181.67 731.55 168.13 727.37&#10;  C 161.72 725.40 156.39 723.59 151.31 719.68"/>
<path stroke="#7a423b" stroke-opacity="0.988" d="&#10;  M 206.69 716.80&#10;  Q 217.42 711.68 224.33 702.10&#10;  Q 231.39 692.32 234.05 681.10&#10;  Q 235.49 675.02 235.51 663.33&#10;  Q 235.60 607.80 235.50 534.41&#10;  Q 235.50 534.20 235.35 527.11&#10;  Q 235.27 523.18 235.48 519.13"/>
<path stroke="#5b4460" d="&#10;  M 367.00 612.56&#10;  C 375.10 610.24 380.92 604.22 385.02 597.27&#10;  C 399.20 573.27 408.14 555.24 425.91 521.69&#10;  A 6.48 6.44 62.1 0 0 426.62 519.35&#10;  L 427.41 511.77"/>
<path stroke="#5b4460" d="&#10;  M 513.94 706.16&#10;  Q 531.93 690.22 531.93 664.99&#10;  Q 531.93 638.27 531.92 611.54"/>
<path stroke="#5b4460" d="&#10;  M 519.56 694.32&#10;  Q 519.84 693.97 519.74 693.54"/>
<path stroke="#5b4460" d="&#10;  M 520.59 690.54&#10;  Q 520.82 690.23 520.71 689.79"/>
<path stroke="#5b4460" d="&#10;  M 521.61 681.46&#10;  Q 521.90 680.77 521.70 680.04"/>
<path stroke="#6a536f" d="&#10;  M 521.71 674.80&#10;  Q 522.02 673.23 521.62 671.94"/>
<path stroke="#6a536f" d="&#10;  M 427.40 509.54&#10;  Q 427.29 509.91 427.39 510.29"/>
<path stroke="#624b67" d="&#10;  M 368.90 609.83&#10;  Q 372.43 605.44 373.70 600.41"/>
<path stroke="#715a76" d="&#10;  M 409.05 533.52&#10;  Q 409.65 533.89 409.51 532.75"/>
<path stroke="#765f7b" d="&#10;  M 411.11 529.95&#10;  Q 412.93 528.06 413.27 525.53"/>
<path stroke="#547050" d="&#10;  M 243.76 1024.00&#10;  Q 236.17 1022.79 228.50 1023.45"/>
<path stroke="#3a393a" d="&#10;  M 224.03 1023.14&#10;  C 220.84 1002.72 210.56 983.13 198.04 967.02&#10;  Q 196.19 964.64 190.30 954.24&#10;  C 187.53 949.36 184.97 944.86 184.36 939.45&#10;  C 184.16 937.66 183.27 935.60 182.35 934.53&#10;  Q 180.63 932.51 172.08 922.85&#10;  C 164.87 914.69 161.46 906.69 156.15 894.42&#10;  Q 150.40 881.16 148.07 874.13&#10;  Q 145.66 866.84 145.45 863.89&#10;  C 144.78 854.20 144.95 848.56 140.63 840.62&#10;  C 129.63 820.40 110.27 804.51 89.71 793.82&#10;  C 84.73 791.23 79.70 788.01 76.30 785.18&#10;  Q 57.92 769.87 37.44 754.99&#10;  C 29.18 748.99 19.13 741.26 13.77 736.24&#10;  Q 5.82 728.80 0.00 719.23"/>
<path stroke="#333233" d="&#10;  M 111.28 986.96&#10;  Q 97.49 977.19 84.58 966.65&#10;  Q 74.61 958.51 65.21 948.31&#10;  Q 37.20 917.92 20.95 880.54&#10;  Q 15.65 868.36 12.43 856.93&#10;  Q 8.15 841.74 4.53 826.14"/>
</g>
<path fill="#242223" d="&#10;  M 528.56 0.00&#10;  Q 514.68 14.62 503.99 22.58&#10;  C 489.73 33.20 477.06 42.29 464.46 52.16&#10;  Q 451.39 62.39 417.44 88.27&#10;  C 410.09 93.88 403.20 99.55 392.71 107.86&#10;  C 385.46 113.60 380.37 118.38 374.90 124.62&#10;  A 0.05 0.05 0.0 0 0 374.96 124.69&#10;  C 399.74 114.40 426.26 105.87 451.82 99.96&#10;  Q 481.79 93.04 512.14 91.73&#10;  A 0.60 0.59 81.6 0 1 512.74 92.18&#10;  Q 515.98 105.41 519.53 123.59&#10;  C 520.98 131.01 523.16 139.42 525.40 144.81&#10;  Q 527.39 149.61 532.56 161.31&#10;  C 539.58 177.22 536.62 194.57 528.86 209.55&#10;  Q 516.27 233.84 509.06 247.66&#10;  C 504.30 256.79 498.53 263.04 490.83 271.49&#10;  C 487.21 275.46 477.83 287.17 470.34 296.13&#10;  A 0.25 0.24 24.7 0 0 470.49 296.53&#10;  L 477.06 297.54&#10;  Q 452.09 295.55 436.08 311.94&#10;  Q 431.60 316.53 425.36 326.74&#10;  Q 420.34 334.96 416.07 342.56&#10;  Q 363.18 436.79 338.53 480.12&#10;  C 336.53 483.64 333.99 487.36 331.75 491.00&#10;  Q 333.05 487.77 332.31 486.52&#10;  Q 302.11 435.69 297.65 428.36&#10;  Q 282.04 402.75 267.98 378.70&#10;  C 259.79 364.68 250.90 350.51 242.84 338.66&#10;  Q 231.97 322.70 216.75 310.25&#10;  Q 213.41 307.51 209.99 306.75&#10;  Q 202.54 301.25 192.98 299.54&#10;  C 185.37 296.29 175.05 297.39 167.46 300.05&#10;  Q 161.03 300.92 155.34 304.35&#10;  Q 137.65 314.99 131.73 334.41&#10;  C 129.80 340.72 129.62 348.68 129.64 355.25&#10;  C 129.87 464.21 129.49 580.56 129.43 672.23&#10;  Q 129.43 683.72 130.88 689.65&#10;  Q 135.43 708.21 152.34 719.17&#10;  Q 151.82 719.70 151.31 719.68&#10;  Q 144.55 715.60 141.99 712.75&#10;  Q 136.38 706.53 134.71 704.56&#10;  C 128.42 697.16 125.93 688.08 125.06 678.38&#10;  A 0.55 0.55 0.0 0 0 124.49 677.88&#10;  Q 88.36 678.94 53.95 683.88&#10;  Q 42.60 685.51 32.04 687.96&#10;  Q 16.17 691.65 10.54 693.72&#10;  Q 3.28 696.39 0.00 697.13&#10;  L 0.00 232.86&#10;  Q 2.64 194.45 13.06 162.31&#10;  Q 20.69 138.78 34.07 115.82&#10;  C 44.87 97.27 56.19 82.28 71.91 67.32&#10;  Q 93.20 47.06 119.92 31.71&#10;  C 144.02 17.88 171.02 8.90 198.03 4.38&#10;  Q 216.08 1.36 236.15 0.00&#10;  L 528.56 0.00&#10;  Z"/>
<path fill="#323132" d="&#10;  M 590.08 0.00&#10;  Q 577.84 10.29 569.53 25.86&#10;  Q 564.79 34.75 563.11 40.78&#10;  Q 558.16 58.62 555.35 67.70&#10;  C 552.33 77.43 551.77 84.07 556.87 92.20&#10;  A 1.16 1.16 0.0 0 0 557.70 92.73&#10;  C 588.52 96.35 619.29 108.61 645.88 124.78&#10;  C 662.03 136.36 676.07 148.48 687.99 164.29&#10;  Q 702.92 184.08 713.76 206.54&#10;  C 726.54 233.01 733.42 264.45 733.95 293.92&#10;  Q 734.00 296.63 736.03 299.19&#10;  L 638.23 299.09&#10;  L 633.61 299.23&#10;  Q 618.35 299.51 606.65 309.14&#10;  Q 588.89 323.78 589.55 346.26&#10;  C 590.12 365.40 601.09 381.52 619.26 388.03&#10;  C 626.33 390.57 634.52 390.60 642.75 390.53&#10;  Q 677.04 390.24 727.52 390.39&#10;  C 719.24 420.79 708.10 450.68 691.52 477.52&#10;  Q 682.11 492.75 672.00 506.62&#10;  Q 663.05 518.88 649.22 533.22&#10;  Q 633.84 549.18 616.64 564.07&#10;  Q 611.55 567.56 605.70 571.95&#10;  Q 599.84 576.35 586.25 584.48&#10;  Q 575.19 591.11 551.10 604.08&#10;  Q 546.49 606.56 539.21 609.91&#10;  Q 535.88 611.44 531.92 611.54&#10;  L 531.65 449.21&#10;  Q 531.53 404.73 531.33 360.25&#10;  Q 531.28 348.31 526.37 336.63&#10;  Q 522.55 327.53 515.85 321.52&#10;  Q 508.32 311.85 500.39 306.10&#10;  Q 490.41 298.85 477.06 297.54&#10;  L 470.49 296.53&#10;  A 0.25 0.24 24.7 0 1 470.34 296.13&#10;  C 477.83 287.17 487.21 275.46 490.83 271.49&#10;  C 498.53 263.04 504.30 256.79 509.06 247.66&#10;  Q 516.27 233.84 528.86 209.55&#10;  C 536.62 194.57 539.58 177.22 532.56 161.31&#10;  Q 527.39 149.61 525.40 144.81&#10;  C 523.16 139.42 520.98 131.01 519.53 123.59&#10;  Q 515.98 105.41 512.74 92.18&#10;  A 0.60 0.59 81.6 0 0 512.14 91.73&#10;  Q 481.79 93.04 451.82 99.96&#10;  C 426.26 105.87 399.74 114.40 374.96 124.69&#10;  A 0.05 0.05 0.0 0 1 374.90 124.62&#10;  C 380.37 118.38 385.46 113.60 392.71 107.86&#10;  C 403.20 99.55 410.09 93.88 417.44 88.27&#10;  Q 451.39 62.39 464.46 52.16&#10;  C 477.06 42.29 489.73 33.20 503.99 22.58&#10;  Q 514.68 14.62 528.56 0.00&#10;  L 590.08 0.00&#10;  Z"/>
<path fill="#424142" d="&#10;  M 653.08 0.00&#10;  Q 645.43 12.90 643.46 27.77&#10;  C 639.27 59.24 640.63 91.92 645.88 124.78&#10;  C 619.29 108.61 588.52 96.35 557.70 92.73&#10;  A 1.16 1.16 0.0 0 1 556.87 92.20&#10;  C 551.77 84.07 552.33 77.43 555.35 67.70&#10;  Q 558.16 58.62 563.11 40.78&#10;  Q 564.79 34.75 569.53 25.86&#10;  Q 577.84 10.29 590.08 0.00&#10;  L 653.08 0.00&#10;  Z"/>
<path fill="#504e4f" d="&#10;  M 776.00 0.00&#10;  L 773.48 0.42&#10;  A 0.90 0.89 9.8 0 0 772.84 0.87&#10;  Q 767.05 11.18 765.71 21.65&#10;  Q 763.59 38.18 765.87 57.95&#10;  C 767.15 68.98 769.15 79.36 770.18 90.65&#10;  Q 771.81 108.46 772.41 127.33&#10;  C 773.21 152.45 773.01 165.28 776.54 184.81&#10;  C 780.97 209.29 785.06 232.05 797.16 251.37&#10;  Q 807.18 267.37 822.06 281.29&#10;  C 825.97 284.96 831.34 288.95 835.78 292.70&#10;  Q 839.22 295.60 840.25 299.25&#10;  L 736.03 299.19&#10;  Q 734.00 296.63 733.95 293.92&#10;  C 733.42 264.45 726.54 233.01 713.76 206.54&#10;  Q 702.92 184.08 687.99 164.29&#10;  C 676.07 148.48 662.03 136.36 645.88 124.78&#10;  C 640.63 91.92 639.27 59.24 643.46 27.77&#10;  Q 645.43 12.90 653.08 0.00&#10;  L 776.00 0.00&#10;  Z"/>
<path fill="#5a595a" d="&#10;  M 792.46 0.00&#10;  L 815.01 2.71&#10;  Q 815.26 2.63 815.72 2.73&#10;  L 818.46 3.09&#10;  Q 818.76 3.33 819.21 3.23&#10;  L 820.69 3.48&#10;  Q 822.17 4.25 824.22 3.94&#10;  L 825.25 4.10&#10;  Q 825.23 4.11 825.21 4.13&#10;  L 822.27 4.62&#10;  A 0.66 0.66 0.0 0 0 821.73 5.16&#10;  C 818.58 23.96 821.60 43.81 827.09 61.25&#10;  C 832.17 77.40 835.83 86.19 836.71 98.22&#10;  C 837.89 114.40 838.91 124.49 839.90 139.56&#10;  Q 840.48 148.45 841.39 155.30&#10;  Q 842.10 160.65 846.47 179.89&#10;  Q 848.23 187.62 849.91 191.55&#10;  Q 855.76 205.24 870.22 210.55&#10;  C 880.18 214.20 890.42 216.80 901.10 215.61&#10;  Q 917.42 213.78 919.27 213.62&#10;  C 930.26 212.68 939.14 213.65 950.65 215.14&#10;  C 965.63 217.07 979.03 216.16 998.04 214.82&#10;  Q 1007.15 214.18 1022.26 215.75&#10;  L 1024.00 230.15&#10;  L 1024.00 295.88&#10;  C 1010.50 293.34 996.16 300.67 982.35 301.99&#10;  Q 978.30 302.37 972.16 303.10&#10;  Q 968.64 303.52 955.37 307.15&#10;  Q 950.18 308.57 948.04 308.93&#10;  Q 934.69 311.13 920.21 314.73&#10;  C 910.38 317.18 900.42 322.12 890.97 326.26&#10;  Q 888.77 322.40 886.24 318.75&#10;  C 879.18 308.54 868.30 302.42 856.23 300.02&#10;  C 851.32 299.05 845.56 299.32 840.25 299.25&#10;  Q 839.22 295.60 835.78 292.70&#10;  C 831.34 288.95 825.97 284.96 822.06 281.29&#10;  Q 807.18 267.37 797.16 251.37&#10;  C 785.06 232.05 780.97 209.29 776.54 184.81&#10;  C 773.01 165.28 773.21 152.45 772.41 127.33&#10;  Q 771.81 108.46 770.18 90.65&#10;  C 769.15 79.36 767.15 68.98 765.87 57.95&#10;  Q 763.59 38.18 765.71 21.65&#10;  Q 767.05 11.18 772.84 0.87&#10;  A 0.90 0.89 9.8 0 1 773.48 0.42&#10;  L 776.00 0.00&#10;  L 792.46 0.00&#10;  Z"/>
<path fill="#242223" d="&#10;  M 815.72 2.73&#10;  Q 815.26 2.63 815.01 2.71&#10;  Q 815.17 2.48 815.72 2.73&#10;  Z"/>
<path fill="#242223" d="&#10;  M 819.21 3.23&#10;  Q 818.76 3.33 818.46 3.09&#10;  Q 818.87 3.08 819.21 3.23&#10;  Z"/>
<path fill="#242223" d="&#10;  M 824.22 3.94&#10;  Q 822.17 4.25 820.69 3.48&#10;  L 824.22 3.94&#10;  Z"/>
<path fill="#242223" d="&#10;  M 825.96 4.20&#10;  L 825.21 4.13&#10;  Q 825.23 4.11 825.25 4.10&#10;  Q 825.63 4.09 825.96 4.20&#10;  Z"/>
<path fill="#626162" d="&#10;  M 825.21 4.13&#10;  L 825.96 4.20&#10;  L 826.70 4.33&#10;  Q 827.66 5.04 828.96 4.71&#10;  Q 830.23 4.81 831.18 5.21&#10;  Q 832.44 6.24 834.76 5.92&#10;  Q 844.86 7.64 861.36 12.92&#10;  Q 919.19 31.45 960.58 75.18&#10;  C 978.13 93.72 991.00 114.44 1001.90 137.32&#10;  C 1013.34 161.31 1019.58 188.90 1022.26 215.75&#10;  Q 1007.15 214.18 998.04 214.82&#10;  C 979.03 216.16 965.63 217.07 950.65 215.14&#10;  C 939.14 213.65 930.26 212.68 919.27 213.62&#10;  Q 917.42 213.78 901.10 215.61&#10;  C 890.42 216.80 880.18 214.20 870.22 210.55&#10;  Q 855.76 205.24 849.91 191.55&#10;  Q 848.23 187.62 846.47 179.89&#10;  Q 842.10 160.65 841.39 155.30&#10;  Q 840.48 148.45 839.90 139.56&#10;  C 838.91 124.49 837.89 114.40 836.71 98.22&#10;  C 835.83 86.19 832.17 77.40 827.09 61.25&#10;  C 821.60 43.81 818.58 23.96 821.73 5.16&#10;  A 0.66 0.66 0.0 0 1 822.27 4.62&#10;  L 825.21 4.13&#10;  Z"/>
<path fill="#242223" d="&#10;  M 828.96 4.71&#10;  Q 827.66 5.04 826.70 4.33&#10;  Q 827.86 4.32 828.96 4.71&#10;  Z"/>
<path fill="#323132" d="&#10;  M 834.76 5.92&#10;  Q 832.44 6.24 831.18 5.21&#10;  L 834.76 5.92&#10;  Z"/>
<path fill="#504e4f" d="&#10;  M 1024.00 295.88&#10;  L 1024.00 365.69&#10;  Q 1011.96 366.79 999.88 367.60&#10;  Q 952.66 370.79 905.37 372.85&#10;  Q 897.26 373.20 890.98 372.56&#10;  Q 892.52 368.15 891.75 364.00&#10;  Q 893.53 359.73 893.19 356.35&#10;  C 896.63 346.81 894.87 335.17 890.97 326.26&#10;  C 900.42 322.12 910.38 317.18 920.21 314.73&#10;  Q 934.69 311.13 948.04 308.93&#10;  Q 950.18 308.57 955.37 307.15&#10;  Q 968.64 303.52 972.16 303.10&#10;  Q 978.30 302.37 982.35 301.99&#10;  C 996.16 300.67 1010.50 293.34 1024.00 295.88&#10;  Z"/>
<path fill="#242223" d="&#10;  M 638.23 299.09&#10;  L 633.61 299.23&#10;  L 638.23 299.09&#10;  Z"/>
<path fill="#fefdfd" fill-opacity="0.816" d="&#10;  M 209.99 306.75&#10;  Q 217.54 312.59 221.86 320.20&#10;  L 201.33 306.15&#10;  Q 201.34 305.36 200.83 304.79&#10;  A 0.34 0.34 0.0 0 1 200.83 304.33&#10;  Q 200.96 304.18 201.40 304.10&#10;  Q 201.68 304.05 202.00 304.62&#10;  Q 202.30 305.13 202.61 305.19&#10;  A 0.21 0.21 0.0 0 0 202.76 304.80&#10;  L 200.58 303.54&#10;  A 0.16 0.14 29.1 0 0 200.37 303.59&#10;  L 200.19 303.90&#10;  A 0.30 0.30 0.0 0 1 199.71 303.96&#10;  Q 198.68 302.90 197.23 302.62&#10;  L 192.98 299.54&#10;  Q 202.54 301.25 209.99 306.75&#10;  Z"/>
<path fill="#fefdfd" fill-opacity="0.816" d="&#10;  M 167.46 300.05&#10;  Q 165.85 300.78 166.35 302.71&#10;  L 166.31 303.75&#10;  Q 166.25 303.85 166.19 303.96&#10;  Q 165.88 304.39 166.07 305.04&#10;  Q 165.48 309.44 166.39 311.32&#10;  Q 168.80 316.33 169.19 319.34&#10;  Q 170.76 331.68 169.37 344.85&#10;  Q 168.52 352.80 172.64 359.79&#10;  C 175.06 363.91 181.47 369.11 184.32 372.73&#10;  Q 192.00 382.50 195.52 389.75&#10;  Q 197.43 393.68 200.77 403.07&#10;  C 203.39 410.43 204.34 417.73 206.20 426.61&#10;  C 209.75 443.60 207.67 460.38 206.44 477.23&#10;  C 206.07 482.21 207.90 487.42 210.56 491.95&#10;  Q 215.58 500.50 220.46 508.64&#10;  A 1.23 1.23 0.0 0 0 222.68 508.39&#10;  L 224.15 503.87&#10;  Q 224.44 507.74 224.66 511.45&#10;  Q 224.87 515.06 224.87 519.05&#10;  Q 224.86 592.87 224.66 674.99&#10;  C 224.63 688.39 221.99 700.88 212.62 710.81&#10;  Q 209.81 713.79 206.69 716.80&#10;  Q 196.36 723.87 183.51 725.61&#10;  Q 166.52 727.93 152.34 719.17&#10;  Q 135.43 708.21 130.88 689.65&#10;  Q 129.43 683.72 129.43 672.23&#10;  C 129.49 580.56 129.87 464.21 129.64 355.25&#10;  C 129.62 348.68 129.80 340.72 131.73 334.41&#10;  Q 137.65 314.99 155.34 304.35&#10;  Q 161.03 300.92 167.46 300.05&#10;  Z"/>
<path fill="#242223" d="&#10;  M 166.31 303.75&#10;  L 166.35 302.71&#10;  Q 166.46 303.25 166.31 303.75&#10;  Z"/>
<path fill="#626162" d="&#10;  M 201.33 306.15&#10;  Q 198.18 305.04 197.23 302.62&#10;  Q 198.68 302.90 199.71 303.96&#10;  A 0.30 0.30 0.0 0 0 200.19 303.90&#10;  L 200.37 303.59&#10;  A 0.16 0.14 29.1 0 1 200.58 303.54&#10;  L 202.76 304.80&#10;  A 0.21 0.21 0.0 0 1 202.61 305.19&#10;  Q 202.30 305.13 202.00 304.62&#10;  Q 201.68 304.05 201.40 304.10&#10;  Q 200.96 304.18 200.83 304.33&#10;  A 0.34 0.34 0.0 0 0 200.83 304.79&#10;  Q 201.34 305.36 201.33 306.15&#10;  Z"/>
<path fill="#75af6d" d="&#10;  M 166.19 303.96&#10;  Q 166.24 304.52 166.07 305.04&#10;  Q 165.88 304.39 166.19 303.96&#10;  Z"/>
<path fill="#767bb4" d="&#10;  M 331.75 491.00&#10;  L 325.73 501.79&#10;  A 0.27 0.27 0.0 0 1 325.25 501.79&#10;  Q 302.69 460.65 280.04 421.40&#10;  C 271.34 406.33 262.13 389.43 255.19 376.81&#10;  C 251.19 369.53 246.87 362.52 243.13 355.60&#10;  Q 231.43 333.94 228.89 329.62&#10;  Q 227.11 326.62 221.86 320.20&#10;  Q 217.54 312.59 209.99 306.75&#10;  Q 213.41 307.51 216.75 310.25&#10;  Q 231.97 322.70 242.84 338.66&#10;  C 250.90 350.51 259.79 364.68 267.98 378.70&#10;  Q 282.04 402.75 297.65 428.36&#10;  Q 302.11 435.69 332.31 486.52&#10;  Q 333.05 487.77 331.75 491.00&#10;  Z"/>
<path fill="#242223" d="&#10;  M 849.96 310.47&#10;  Q 849.44 310.33 848.73 310.40&#10;  Q 849.49 310.29 849.96 310.47&#10;  Z"/>
<path fill="#fefdfd" fill-opacity="0.816" d="&#10;  M 848.73 310.40&#10;  Q 849.44 310.33 849.96 310.47&#10;  C 856.78 310.53 864.64 312.06 869.56 317.19&#10;  Q 876.88 324.80 881.39 334.47&#10;  Q 882.52 336.91 885.33 342.50&#10;  Q 887.18 346.20 888.71 351.51&#10;  Q 890.09 356.31 893.19 356.35&#10;  Q 893.53 359.73 891.75 364.00&#10;  L 889.45 369.04&#10;  Q 889.16 369.32 889.32 369.36&#10;  L 879.40 381.62&#10;  Q 877.02 384.35 874.85 387.34&#10;  Q 865.20 400.61 856.39 414.91&#10;  Q 837.72 441.66 833.10 449.35&#10;  Q 828.21 457.49 823.96 462.12&#10;  Q 822.77 458.08 819.43 456.32&#10;  C 809.45 451.04 801.45 443.75 799.94 432.36&#10;  C 799.28 427.39 798.93 423.93 799.35 418.90&#10;  C 800.54 404.32 800.95 394.83 799.98 382.01&#10;  C 798.66 364.55 804.56 350.08 812.83 334.82&#10;  Q 815.53 329.82 817.40 327.91&#10;  Q 820.90 324.30 825.73 320.71&#10;  C 833.86 314.64 839.21 310.83 848.73 310.40&#10;  Z"/>
<path fill="#767bb4" d="&#10;  M 531.65 449.21&#10;  L 531.41 458.37&#10;  A 0.30 0.30 0.0 0 1 530.94 458.60&#10;  L 521.49 452.02&#10;  Q 521.24 373.51 521.39 344.50&#10;  Q 521.46 331.80 515.85 321.52&#10;  Q 522.55 327.53 526.37 336.63&#10;  Q 531.28 348.31 531.33 360.25&#10;  Q 531.53 404.73 531.65 449.21&#10;  Z"/>
<path fill="#75af6d" d="&#10;  M 891.75 364.00&#10;  Q 892.52 368.15 890.98 372.56&#10;  Q 886.90 391.47 876.13 407.24&#10;  L 848.81 447.95&#10;  L 815.24 499.08&#10;  L 799.34 523.12&#10;  Q 790.79 524.05 782.35 526.53&#10;  Q 801.44 497.12 820.79 468.04&#10;  Q 822.75 465.08 823.96 462.12&#10;  Q 828.21 457.49 833.10 449.35&#10;  Q 837.72 441.66 856.39 414.91&#10;  Q 863.83 407.81 869.55 399.09&#10;  Q 875.70 389.71 876.46 388.78&#10;  C 879.69 384.80 883.68 380.77 886.96 376.27&#10;  A 0.23 0.22 33.7 0 0 886.89 375.94&#10;  L 886.60 375.77&#10;  A 0.08 0.07 -48.6 0 0 886.52 375.78&#10;  L 879.40 381.62&#10;  L 889.32 369.36&#10;  Q 889.32 369.85 889.45 369.04&#10;  L 891.75 364.00&#10;  Z"/>
<path fill="#424142" d="&#10;  M 1024.00 365.69&#10;  L 1024.00 427.13&#10;  Q 984.24 442.28 959.57 450.82&#10;  Q 927.83 461.81 895.97 472.78&#10;  C 877.01 479.31 852.75 487.05 831.28 494.56&#10;  Q 825.97 496.42 815.24 499.08&#10;  L 848.81 447.95&#10;  Q 851.48 446.22 852.98 443.95&#10;  Q 863.54 427.99 871.08 417.57&#10;  Q 874.76 412.47 876.13 407.24&#10;  Q 886.90 391.47 890.98 372.56&#10;  Q 897.26 373.20 905.37 372.85&#10;  Q 952.66 370.79 999.88 367.60&#10;  Q 1011.96 366.79 1024.00 365.69&#10;  Z"/>
<path fill="#626162" d="&#10;  M 889.45 369.04&#10;  Q 889.32 369.85 889.32 369.36&#10;  Q 889.16 369.32 889.45 369.04&#10;  Z"/>
<path fill="#626162" d="&#10;  M 856.39 414.91&#10;  Q 865.20 400.61 874.85 387.34&#10;  Q 877.02 384.35 879.40 381.62&#10;  L 886.52 375.78&#10;  A 0.08 0.07 -48.6 0 1 886.60 375.77&#10;  L 886.89 375.94&#10;  A 0.23 0.22 33.7 0 1 886.96 376.27&#10;  C 883.68 380.77 879.69 384.80 876.46 388.78&#10;  Q 875.70 389.71 869.55 399.09&#10;  Q 863.83 407.81 856.39 414.91&#10;  Z"/>
<path fill="#424142" d="&#10;  M 763.93 390.47&#10;  Q 764.21 390.75 764.98 390.63&#10;  Q 765.75 390.55 766.38 390.72&#10;  A 0.39 0.39 0.0 0 1 766.60 391.32&#10;  L 761.77 398.35&#10;  Q 752.48 409.05 744.80 421.03&#10;  C 741.13 426.76 736.69 432.69 733.33 437.88&#10;  Q 726.45 448.48 724.32 451.57&#10;  Q 693.51 496.20 667.44 535.20&#10;  Q 659.92 546.45 654.12 554.61&#10;  A 3.80 3.76 -78.5 0 1 651.87 556.12&#10;  L 616.64 564.07&#10;  Q 633.84 549.18 649.22 533.22&#10;  Q 663.05 518.88 672.00 506.62&#10;  Q 682.11 492.75 691.52 477.52&#10;  C 708.10 450.68 719.24 420.79 727.52 390.39&#10;  L 763.93 390.47&#10;  Z"/>
<path fill="#242223" d="&#10;  M 764.98 390.63&#10;  Q 764.21 390.75 763.93 390.47&#10;  Q 764.27 390.72 764.98 390.63&#10;  Z"/>
<path fill="#242223" d="&#10;  M 761.77 398.35&#10;  Q 749.94 415.21 738.47 432.21&#10;  C 715.57 466.14 689.24 504.60 671.12 531.66&#10;  C 646.36 568.66 621.60 604.18 595.74 643.24&#10;  C 589.40 652.82 586.98 665.37 587.38 676.23&#10;  Q 587.85 688.56 594.41 699.83&#10;  Q 604.73 717.52 625.11 723.16&#10;  Q 630.06 724.53 634.75 724.53&#10;  Q 769.35 724.46 818.50 724.47&#10;  Q 841.27 724.48 851.47 724.27&#10;  Q 858.88 724.12 863.83 722.51&#10;  C 878.49 717.75 889.31 707.58 894.17 693.11&#10;  C 897.44 683.38 897.29 670.90 892.78 661.27&#10;  Q 883.36 641.13 863.42 636.04&#10;  Q 857.81 634.60 844.45 634.57&#10;  Q 843.74 634.57 816.25 634.59&#10;  Q 771.21 634.63 725.85 634.47&#10;  L 799.34 523.12&#10;  L 815.24 499.08&#10;  Q 825.97 496.42 831.28 494.56&#10;  C 852.75 487.05 877.01 479.31 895.97 472.78&#10;  Q 927.83 461.81 959.57 450.82&#10;  Q 984.24 442.28 1024.00 427.13&#10;  L 1024.00 792.73&#10;  Q 1022.88 803.00 1022.11 813.31&#10;  Q 1021.88 816.41 1018.79 832.21&#10;  Q 1016.62 843.37 1014.51 850.93&#10;  C 1002.84 892.71 980.45 932.08 948.36 961.13&#10;  C 941.54 967.31 935.71 972.43 929.80 976.44&#10;  Q 913.26 987.70 905.05 992.30&#10;  Q 869.49 1012.25 830.62 1019.21&#10;  Q 823.14 1020.55 818.82 1021.38&#10;  C 811.73 1022.74 803.56 1022.62 795.87 1024.00&#10;  L 427.76 1024.00&#10;  Q 424.74 1022.71 421.78 1021.38&#10;  C 414.90 1018.29 411.48 1012.38 410.06 1005.34&#10;  C 407.99 995.11 405.65 984.36 401.17 975.06&#10;  C 399.00 970.54 394.65 963.84 392.43 958.53&#10;  C 389.24 950.89 386.71 945.32 379.85 939.97&#10;  C 367.16 930.07 353.01 923.18 351.03 905.03&#10;  Q 350.63 901.42 349.99 889.28&#10;  C 349.37 877.73 344.59 870.47 337.12 861.91&#10;  C 333.73 858.02 330.65 852.83 327.03 848.23&#10;  C 324.55 845.07 325.42 840.22 325.04 836.96&#10;  Q 324.56 832.90 321.44 826.94&#10;  Q 319.68 823.59 311.94 808.40&#10;  C 307.23 799.17 300.59 790.73 297.13 780.54&#10;  Q 291.95 765.27 285.36 748.49&#10;  Q 285.17 748.00 284.51 745.97&#10;  C 281.29 736.04 278.60 725.78 275.85 718.61&#10;  C 270.60 704.91 264.48 689.65 256.22 675.56&#10;  A 0.89 0.86 -14.7 0 0 255.46 675.13&#10;  L 237.82 675.13&#10;  A 1.70 1.69 4.1 0 0 236.14 676.58&#10;  Q 233.73 692.70 223.30 704.78&#10;  C 218.47 710.38 215.58 716.69 208.98 720.71&#10;  C 197.16 727.92 181.67 731.55 168.13 727.37&#10;  C 161.72 725.40 156.39 723.59 151.31 719.68&#10;  Q 151.82 719.70 152.34 719.17&#10;  Q 166.52 727.93 183.51 725.61&#10;  Q 196.36 723.87 206.69 716.80&#10;  Q 217.42 711.68 224.33 702.10&#10;  Q 231.39 692.32 234.05 681.10&#10;  Q 235.49 675.02 235.51 663.33&#10;  Q 235.60 607.80 235.50 534.41&#10;  Q 235.50 534.20 235.35 527.11&#10;  Q 235.27 523.18 235.48 519.13&#10;  C 236.99 521.71 238.70 524.34 239.96 526.82&#10;  Q 253.52 553.62 268.59 580.33&#10;  C 274.55 590.90 279.40 601.00 284.99 610.25&#10;  Q 290.20 618.87 298.98 624.76&#10;  Q 313.73 634.67 333.04 632.72&#10;  Q 348.64 631.16 359.50 621.33&#10;  C 361.94 619.12 364.50 615.39 367.00 612.56&#10;  C 375.10 610.24 380.92 604.22 385.02 597.27&#10;  C 399.20 573.27 408.14 555.24 425.91 521.69&#10;  A 6.48 6.44 62.1 0 0 426.62 519.35&#10;  L 427.41 511.77&#10;  C 427.37 516.00 427.68 520.61 427.68 524.42&#10;  Q 427.57 632.51 427.20 668.50&#10;  Q 427.02 686.03 428.61 691.85&#10;  Q 433.63 710.17 449.57 719.68&#10;  Q 462.89 727.64 479.59 725.44&#10;  Q 500.44 722.71 513.94 706.16&#10;  Q 531.93 690.22 531.93 664.99&#10;  Q 531.93 638.27 531.92 611.54&#10;  Q 535.88 611.44 539.21 609.91&#10;  Q 546.49 606.56 551.10 604.08&#10;  Q 575.19 591.11 586.25 584.48&#10;  Q 599.84 576.35 605.70 571.95&#10;  Q 611.55 567.56 616.64 564.07&#10;  L 651.87 556.12&#10;  A 3.80 3.76 -78.5 0 0 654.12 554.61&#10;  Q 659.92 546.45 667.44 535.20&#10;  Q 693.51 496.20 724.32 451.57&#10;  Q 726.45 448.48 733.33 437.88&#10;  C 736.69 432.69 741.13 426.76 744.80 421.03&#10;  Q 752.48 409.05 761.77 398.35&#10;  Z"/>
<path fill="#323132" d="&#10;  M 848.81 447.95&#10;  L 876.13 407.24&#10;  Q 874.76 412.47 871.08 417.57&#10;  Q 863.54 427.99 852.98 443.95&#10;  Q 851.48 446.22 848.81 447.95&#10;  Z"/>
<path fill="#91659c" d="&#10;  M 531.65 449.21&#10;  L 531.92 611.54&#10;  Q 531.93 638.27 531.93 664.99&#10;  Q 531.93 690.22 513.94 706.16&#10;  Q 517.54 700.43 519.56 694.32&#10;  Q 519.84 693.97 519.74 693.54&#10;  L 520.59 690.54&#10;  Q 520.82 690.23 520.71 689.79&#10;  L 521.61 681.46&#10;  Q 521.90 680.77 521.70 680.04&#10;  L 521.71 674.80&#10;  Q 522.02 673.23 521.62 671.94&#10;  L 521.49 452.02&#10;  L 530.94 458.60&#10;  A 0.30 0.30 0.0 0 0 531.41 458.37&#10;  L 531.65 449.21&#10;  Z"/>
<path fill="#91659c" d="&#10;  M 427.40 509.54&#10;  Q 427.29 509.91 427.39 510.29&#10;  L 427.41 511.77&#10;  L 426.62 519.35&#10;  A 6.48 6.44 62.1 0 1 425.91 521.69&#10;  C 408.14 555.24 399.20 573.27 385.02 597.27&#10;  C 380.92 604.22 375.10 610.24 367.00 612.56&#10;  Q 367.89 610.31 368.90 609.83&#10;  Q 372.43 605.44 373.70 600.41&#10;  L 409.05 533.52&#10;  Q 409.65 533.89 409.51 532.75&#10;  Q 410.14 530.97 411.11 529.95&#10;  Q 412.93 528.06 413.27 525.53&#10;  L 426.91 497.75&#10;  A 0.24 0.24 0.0 0 1 427.36 497.86&#10;  L 427.40 509.54&#10;  Z"/>
<path fill="#d36353" fill-opacity="0.973" d="&#10;  M 235.48 519.13&#10;  Q 235.27 523.18 235.35 527.11&#10;  Q 235.50 534.20 235.50 534.41&#10;  Q 235.60 607.80 235.51 663.33&#10;  Q 235.49 675.02 234.05 681.10&#10;  Q 231.39 692.32 224.33 702.10&#10;  Q 217.42 711.68 206.69 716.80&#10;  Q 209.81 713.79 212.62 710.81&#10;  C 221.99 700.88 224.63 688.39 224.66 674.99&#10;  Q 224.86 592.87 224.87 519.05&#10;  Q 224.87 515.06 224.66 511.45&#10;  Q 224.44 507.74 224.15 503.87&#10;  Q 224.01 501.95 224.81 499.70&#10;  A 0.32 0.31 -59.1 0 1 225.32 499.57&#10;  Q 227.17 501.32 228.39 503.66&#10;  Q 232.39 511.38 235.48 519.13&#10;  Z"/>
<path fill="#424142" d="&#10;  M 427.40 509.54&#10;  L 427.39 510.29&#10;  Q 427.29 509.91 427.40 509.54&#10;  Z"/>
<path fill="#aeb24e" d="&#10;  M 799.34 523.12&#10;  L 725.85 634.47&#10;  L 711.26 634.44&#10;  A 0.38 0.38 0.0 0 1 710.95 633.83&#10;  Q 713.63 630.27 716.06 626.33&#10;  Q 725.36 611.29 730.88 603.18&#10;  Q 756.89 564.96 782.35 526.53&#10;  Q 790.79 524.05 799.34 523.12&#10;  Z"/>
<path fill="#5a595a" d="&#10;  M 413.27 525.53&#10;  Q 412.93 528.06 411.11 529.95&#10;  Q 411.81 527.47 413.27 525.53&#10;  Z"/>
<path fill="#504e4f" d="&#10;  M 409.51 532.75&#10;  Q 409.65 533.89 409.05 533.52&#10;  Q 409.19 533.00 409.51 532.75&#10;  Z"/>
<path fill="#323132" d="&#10;  M 373.70 600.41&#10;  Q 372.43 605.44 368.90 609.83&#10;  L 373.70 600.41&#10;  Z"/>
<path fill="#424142" d="&#10;  M 521.71 674.80&#10;  L 521.62 671.94&#10;  Q 522.02 673.23 521.71 674.80&#10;  Z"/>
<path fill="#323132" d="&#10;  M 427.76 1024.00&#10;  L 243.76 1024.00&#10;  Q 236.17 1022.79 228.50 1023.45&#10;  L 224.03 1023.14&#10;  C 220.84 1002.72 210.56 983.13 198.04 967.02&#10;  Q 196.19 964.64 190.30 954.24&#10;  C 187.53 949.36 184.97 944.86 184.36 939.45&#10;  C 184.16 937.66 183.27 935.60 182.35 934.53&#10;  Q 180.63 932.51 172.08 922.85&#10;  C 164.87 914.69 161.46 906.69 156.15 894.42&#10;  Q 150.40 881.16 148.07 874.13&#10;  Q 145.66 866.84 145.45 863.89&#10;  C 144.78 854.20 144.95 848.56 140.63 840.62&#10;  C 129.63 820.40 110.27 804.51 89.71 793.82&#10;  C 84.73 791.23 79.70 788.01 76.30 785.18&#10;  Q 57.92 769.87 37.44 754.99&#10;  C 29.18 748.99 19.13 741.26 13.77 736.24&#10;  Q 5.82 728.80 0.00 719.23&#10;  L 0.00 697.13&#10;  Q 3.28 696.39 10.54 693.72&#10;  Q 16.17 691.65 32.04 687.96&#10;  Q 42.60 685.51 53.95 683.88&#10;  Q 88.36 678.94 124.49 677.88&#10;  A 0.55 0.55 0.0 0 1 125.06 678.38&#10;  C 125.93 688.08 128.42 697.16 134.71 704.56&#10;  Q 136.38 706.53 141.99 712.75&#10;  Q 144.55 715.60 151.31 719.68&#10;  C 156.39 723.59 161.72 725.40 168.13 727.37&#10;  C 181.67 731.55 197.16 727.92 208.98 720.71&#10;  C 215.58 716.69 218.47 710.38 223.30 704.78&#10;  Q 233.73 692.70 236.14 676.58&#10;  A 1.70 1.69 4.1 0 1 237.82 675.13&#10;  L 255.46 675.13&#10;  A 0.89 0.86 -14.7 0 1 256.22 675.56&#10;  C 264.48 689.65 270.60 704.91 275.85 718.61&#10;  C 278.60 725.78 281.29 736.04 284.51 745.97&#10;  Q 285.17 748.00 285.36 748.49&#10;  Q 291.95 765.27 297.13 780.54&#10;  C 300.59 790.73 307.23 799.17 311.94 808.40&#10;  Q 319.68 823.59 321.44 826.94&#10;  Q 324.56 832.90 325.04 836.96&#10;  C 325.42 840.22 324.55 845.07 327.03 848.23&#10;  C 330.65 852.83 333.73 858.02 337.12 861.91&#10;  C 344.59 870.47 349.37 877.73 349.99 889.28&#10;  Q 350.63 901.42 351.03 905.03&#10;  C 353.01 923.18 367.16 930.07 379.85 939.97&#10;  C 386.71 945.32 389.24 950.89 392.43 958.53&#10;  C 394.65 963.84 399.00 970.54 401.17 975.06&#10;  C 405.65 984.36 407.99 995.11 410.06 1005.34&#10;  C 411.48 1012.38 414.90 1018.29 421.78 1021.38&#10;  Q 424.74 1022.71 427.76 1024.00&#10;  Z"/>
<path fill="#242223" d="&#10;  M 521.70 680.04&#10;  Q 521.90 680.77 521.61 681.46&#10;  Q 521.54 680.70 521.70 680.04&#10;  Z"/>
<path fill="#242223" d="&#10;  M 520.71 689.79&#10;  Q 520.82 690.23 520.59 690.54&#10;  Q 520.59 690.13 520.71 689.79&#10;  Z"/>
<path fill="#242223" d="&#10;  M 519.74 693.54&#10;  Q 519.84 693.97 519.56 694.32&#10;  Q 519.58 693.85 519.74 693.54&#10;  Z"/>
<path fill="#424142" d="&#10;  M 224.03 1023.14&#10;  C 219.17 1022.78 213.64 1021.68 209.59 1021.16&#10;  Q 186.84 1018.22 167.97 1012.77&#10;  Q 138.68 1004.31 111.28 986.96&#10;  Q 97.49 977.19 84.58 966.65&#10;  Q 74.61 958.51 65.21 948.31&#10;  Q 37.20 917.92 20.95 880.54&#10;  Q 15.65 868.36 12.43 856.93&#10;  Q 8.15 841.74 4.53 826.14&#10;  L 0.00 790.08&#10;  L 0.00 719.23&#10;  Q 5.82 728.80 13.77 736.24&#10;  C 19.13 741.26 29.18 748.99 37.44 754.99&#10;  Q 57.92 769.87 76.30 785.18&#10;  C 79.70 788.01 84.73 791.23 89.71 793.82&#10;  C 110.27 804.51 129.63 820.40 140.63 840.62&#10;  C 144.95 848.56 144.78 854.20 145.45 863.89&#10;  Q 145.66 866.84 148.07 874.13&#10;  Q 150.40 881.16 156.15 894.42&#10;  C 161.46 906.69 164.87 914.69 172.08 922.85&#10;  Q 180.63 932.51 182.35 934.53&#10;  C 183.27 935.60 184.16 937.66 184.36 939.45&#10;  C 184.97 944.86 187.53 949.36 190.30 954.24&#10;  Q 196.19 964.64 198.04 967.02&#10;  C 210.56 983.13 220.84 1002.72 224.03 1023.14&#10;  Z"/>
<path fill="#242223" d="&#10;  M 111.28 986.96&#10;  Q 108.58 985.68 106.21 984.06&#10;  C 91.76 974.18 77.36 962.55 65.35 949.76&#10;  Q 44.16 927.19 29.54 900.23&#10;  Q 10.70 865.50 4.53 826.14&#10;  Q 8.15 841.74 12.43 856.93&#10;  Q 15.65 868.36 20.95 880.54&#10;  Q 37.20 917.92 65.21 948.31&#10;  Q 74.61 958.51 84.58 966.65&#10;  Q 97.49 977.19 111.28 986.96&#10;  Z"/>
<path fill="#75af6d" d="&#10;  M 243.76 1024.00&#10;  L 230.64 1024.00&#10;  L 228.50 1023.45&#10;  Q 236.17 1022.79 243.76 1024.00&#10;  Z"/>
</svg>